PathFileType	4	(X/Y/Z)	C:/Users/dbak576/Desktop/Duncan Bakke Modelling Files/Output/AB08/StaticAB08.trc	
DataRate	CameraRate	NumFrames	NumMarkers	Units	OrigDataRate	OrigDataStartFrame	OrigNumFrames	
200.00	200.00	4	42	mm	200.00	63	125	
Frame#	Time	LASI			RASI			LPSI			RPSI			LTH1			LTH2			LTH3			LTH4			LMFC			LLFC			LTB1			LTB2			LTB3			LTB4			LMMAL			LLMAL			LCAL			LToe			LMT1			LMT5			RTH1			RTH2			RTH3			RTH4			RMFC			RLFC			RTB1			RTB2			RTB3			RTB4			RMMAL			RLMAL			RCAL			RToe			RMT1			RMT5			C7			T10			LACR1			RACR1			CLAV			RBack			
		X1	Y1	Z1	X2	Y2	Z2	X3	Y3	Z3	X4	Y4	Z4	X5	Y5	Z5	X6	Y6	Z6	X7	Y7	Z7	X8	Y8	Z8	X9	Y9	Z9	X10	Y10	Z10	X11	Y11	Z11	X12	Y12	Z12	X13	Y13	Z13	X14	Y14	Z14	X15	Y15	Z15	X16	Y16	Z16	X17	Y17	Z17	X18	Y18	Z18	X19	Y19	Z19	X20	Y20	Z20	X21	Y21	Z21	X22	Y22	Z22	X23	Y23	Z23	X24	Y24	Z24	X25	Y25	Z25	X26	Y26	Z26	X27	Y27	Z27	X28	Y28	Z28	X29	Y29	Z29	X30	Y30	Z30	X31	Y31	Z31	X32	Y32	Z32	X33	Y33	Z33	X34	Y34	Z34	X35	Y35	Z35	X36	Y36	Z36	X37	Y37	Z37	X38	Y38	Z38	X39	Y39	Z39	X40	Y40	Z40	X41	Y41	Z41	X42	Y42	Z42	

63	0.310	352.92169	918.75781	973.31445	603.20111	916.29126	990.86591	416.25458	696.34631	1007.96930	542.35461	687.95532	1012.88947	334.72144	919.49109	681.30530	324.06454	897.76215	649.39307	370.51578	897.97778	601.66736	354.06171	909.75427	637.58923	442.46936	829.48749	508.72931	318.71506	801.07300	520.73975	288.82388	770.29797	428.47516	286.23206	760.31268	344.64783	300.71863	812.78619	341.15604	296.65265	805.58844	381.06613	383.24301	797.89392	121.32506	298.18826	774.41632	116.20638	338.79120	705.37299	52.32650	354.90634	1008.81757	46.11501	384.61377	920.39716	48.03131	262.87747	902.05072	40.27662	608.65643	918.03033	705.34949	598.21191	899.73315	642.60730	642.34338	861.38086	623.90454	649.72986	880.46399	678.64746	519.92969	829.54102	507.46695	645.95380	803.86896	531.25513	661.30719	815.40973	418.52536	652.36047	827.10504	381.43796	646.41211	831.79651	330.97427	678.43970	788.32562	335.25256	583.84888	799.72998	122.93995	671.24945	771.26642	113.55609	625.33167	700.58911	57.19217	617.57690	1004.14850	42.32754	586.48822	911.16858	42.14585	708.60968	891.57507	43.76829	448.77402	726.89117	1498.40967	454.53644	695.68811	1242.29309	287.27573	795.90027	1478.27844	608.98145	778.45471	1491.06580	459.24796	889.52258	1455.41138	571.07971	680.77411	1396.81641 
64	0.315	352.94263	918.78662	973.29907	603.23438	916.35327	990.91028	416.26834	696.41138	1007.93335	542.35425	687.95331	1012.88971	334.71960	919.49780	681.29810	324.06183	897.72913	649.35895	370.49396	897.98273	601.67584	354.02838	909.75854	637.61444	442.48593	829.50488	508.74936	318.71414	801.02942	520.71075	288.83557	770.32544	428.44611	286.21143	760.30487	344.63226	300.66483	812.74603	341.19360	296.69971	805.52576	381.03122	383.24341	797.89417	121.32442	298.19223	774.42273	116.20879	338.77835	705.34198	52.31589	354.86536	1008.81451	46.09838	384.61816	920.38782	48.04438	262.86639	902.00806	40.26243	608.63367	918.12677	705.37903	598.16858	899.76794	642.57397	642.33240	861.42126	623.91504	649.70123	880.43146	678.63641	519.87683	829.58081	507.48270	645.98022	803.89233	531.24054	661.27832	815.43732	418.52399	652.36438	827.08252	381.42471	646.40985	831.78430	330.96423	678.26202	788.36749	335.15350	583.84723	799.70367	122.91576	671.25427	771.28760	113.55636	625.29895	700.56354	57.19511	617.55072	1004.08557	42.31911	586.48535	911.15460	42.14069	708.62317	891.54395	43.79182	448.73102	726.91119	1498.41980	454.49622	695.68732	1242.29565	287.22324	795.91193	1478.30542	608.94080	778.45074	1491.03235	459.25516	889.54028	1455.43665	571.05206	680.75708	1396.79004 
65	0.320	352.94714	918.79047	973.31024	603.15607	916.33942	990.87372	416.26059	696.42548	1007.95892	542.35272	687.97931	1012.88202	334.78842	919.52222	681.32715	324.06677	897.70526	649.34338	370.50650	897.98456	601.66034	354.07843	909.75610	637.60175	442.48590	829.50006	508.74866	318.74237	801.03204	520.71014	288.80103	770.27856	428.45331	286.19144	760.32031	344.65134	300.73138	812.77820	341.16098	296.71182	805.57526	381.09576	383.25177	797.87982	121.34387	298.18576	774.42920	116.20074	338.78320	705.32996	52.29212	354.90601	1008.82666	46.11678	384.61240	920.41687	48.04460	262.84863	902.00610	40.27349	608.61633	918.11633	705.36664	598.17670	899.80255	642.61188	642.34003	861.40784	623.92053	649.70044	880.48822	678.63428	519.87103	829.58301	507.48074	645.97540	803.91284	531.24323	661.28320	815.49713	418.55746	652.35895	827.18091	381.44650	646.39227	831.82196	330.97568	678.23767	788.32532	335.15973	583.84546	799.70410	122.91749	671.28912	771.30682	113.55852	625.30133	700.56360	57.19635	617.57184	1004.10541	42.30116	586.54407	911.20258	42.13671	708.60571	891.57269	43.78853	448.70813	726.91925	1498.41626	454.46597	695.76373	1242.29077	287.19504	795.94476	1478.30164	608.90112	778.46155	1491.03113	459.18329	889.56299	1455.41858	570.99451	680.77625	1396.76428 
66	0.325	352.87808	918.78778	973.28522	603.13599	916.35645	990.88055	416.16599	696.44788	1007.99677	542.31781	688.01166	1012.92346	334.79456	919.50702	681.27783	324.08218	897.71301	649.35486	370.49509	897.92603	601.65607	354.13904	909.79144	637.60400	442.52084	829.44135	508.74155	318.74051	801.02844	520.72571	288.86835	770.29901	428.45963	286.21643	760.28668	344.64844	300.73169	812.78528	341.21692	296.72748	805.51733	381.10074	383.24469	797.89569	121.32342	298.20096	774.41626	116.18343	338.81473	705.31262	52.32266	354.89740	1008.79102	46.11338	384.60614	920.41516	48.04935	262.87314	902.02087	40.26595	608.64111	918.12610	705.35944	598.16150	899.79657	642.59607	642.33423	861.47369	623.95386	649.72546	880.48322	678.67511	519.90924	829.55255	507.44547	645.96997	803.90686	531.25824	661.28955	815.49670	418.60120	652.36554	827.17413	381.46637	646.40546	831.82343	330.97949	678.25439	788.34448	335.17789	583.86414	799.72089	122.93320	671.27649	771.29486	113.54314	625.32477	700.54431	57.20167	617.53998	1003.97717	42.14965	586.48499	911.18146	42.12749	708.60571	891.57318	43.78251	448.67172	726.93079	1498.42554	454.43130	695.77954	1242.29138	287.17752	795.97925	1478.30127	608.88690	778.50275	1490.99438	459.17450	889.55859	1455.44202	570.98914	680.80182	1396.72314 
